<?xml version="1.0" encoding="UTF-8" standalone="no"?>
<!DOCTYPE svg PUBLIC "-//W3C//DTD SVG 1.1//EN" "http://www.w3.org/Graphics/SVG/1.1/DTD/svg11.dtd">
<svg width="100%" height="100%" viewBox="0 0 5574 1991" version="1.1" xmlns="http://www.w3.org/2000/svg" xmlns:xlink="http://www.w3.org/1999/xlink" xml:space="preserve" xmlns:serif="http://www.serif.com/" style="fill-rule:evenodd;clip-rule:evenodd;stroke-linejoin:round;stroke-miterlimit:2;">
    <g transform="matrix(1.01589,0,0,1.01589,-97.4345,-89.4131)">
        <g transform="matrix(0.808684,0,0,0.808684,1066.23,380.75)">
            <path d="M3283.75,1072.61C3276.08,1084.2 3271.19,1092.14 3265.86,1099.79C3216.01,1171.18 3160.08,1236.37 3083.83,1281.47C2981.64,1341.89 2870.86,1366.81 2755.41,1341.79C2696.16,1328.93 2641.05,1295.78 2585.25,1269.32C2572.39,1263.25 2565.36,1263.1 2553.93,1269.85C2506.08,1298.07 2459.53,1329.71 2408.86,1351.66C2318.92,1390.59 2224.22,1412.41 2126.34,1386.52C2064.98,1370.28 2011.91,1335.72 1963.96,1294.14C1929.96,1264.66 1927.77,1264.68 1893.28,1293.05C1831.27,1344.08 1759.68,1376.99 1684.76,1404.17C1591.83,1437.92 1496,1458.6 1397.97,1468.3C1278.38,1480.14 1167.48,1459.83 1086.55,1361.52C1021.67,1282.75 1004.32,1191.37 1044.01,1096.37C1087.48,992.358 1137.74,891.143 1184.94,788.713C1209.55,735.346 1234.33,682.03 1258.2,628.345C1262.56,618.483 1264.33,606.977 1264.83,596.091C1265.76,576.076 1269.83,554.155 1246.69,542.112C1223.04,529.849 1195.15,532.06 1177.81,553.991C1156.09,581.429 1136.86,611.483 1120.69,642.548C1067.12,745.375 1015.29,849.147 963.032,952.648C923.831,1030.26 885.382,1108.21 845.824,1185.62C808.345,1259.04 737.9,1287.02 661.554,1258.47C635.839,1248.81 619.709,1229.84 615.376,1200.99C609.246,1160.05 622.67,1123.39 637.193,1086.74C668.909,1006.58 701.036,926.565 732.739,846.375C749.716,803.38 766.704,760.349 782.643,716.958C793.809,686.619 797.164,654.443 784.139,624.642C774.059,601.665 754.221,585.06 726.391,587.526C695.999,590.221 672.089,606.098 660.632,634.316C620.32,733.843 581.653,834.024 541.991,933.808C494.553,1053.24 447.903,1173 398.486,1291.63C380.194,1335.47 352.603,1375.38 306.181,1394.15C282.681,1403.67 256.075,1409.57 230.77,1409.92C151.818,1410.96 83.632,1384.58 37.063,1317.57C0.033,1264.28 -9.024,1204.97 8.873,1142.23C25.424,1084.15 41.978,1026.07 59.34,968.218C75.791,913.396 93.279,858.867 110.356,804.21C126.272,753.321 141.152,702.047 158.41,651.619C192.374,552.346 219.762,450.096 273.586,359.034C310.411,296.726 370.065,263.04 438.479,242.143C510.007,220.327 570.939,247.791 632.007,278.178C655.165,289.671 678.017,301.962 701.786,311.975C734.947,325.898 765.182,317.084 791.967,295.268C813.888,277.423 836.009,259.592 856.215,239.859C906.695,190.578 1015.74,181.446 1069.03,238.797C1081.31,252.004 1095.79,263.145 1109.35,275.113C1137.24,299.753 1148.78,302.267 1181.05,284.053C1257.81,240.714 1337.32,246.715 1415.49,274.497C1460.83,290.631 1487.97,329.154 1505.31,374.78C1530.8,441.955 1520.11,506.819 1494.56,569.959C1447.57,686.117 1396.38,800.556 1350.53,917.149C1323.35,986.316 1300.4,1057.44 1280.86,1129.12C1272.91,1158.34 1272.86,1192.98 1280.28,1222.33C1291.51,1266.76 1332.2,1281.32 1373.36,1286.53C1436.04,1294.47 1497.54,1282.83 1557.59,1266.22C1608.87,1252.09 1659.36,1234.65 1709.45,1216.56C1733.62,1207.82 1756.14,1194.41 1779.2,1182.69C1798.94,1172.72 1800.46,1158.11 1790.06,1139.74C1768.82,1102.25 1746.48,1065.23 1727.76,1026.45C1688.19,944.484 1655.63,859.9 1664.32,766.426C1671.91,684.612 1701.45,613.555 1776.94,570.494C1888.39,506.973 1978.82,524.512 2060.74,619.416C2131.58,701.513 2154.94,800.337 2124.53,906.217C2107.51,965.42 2083.17,1022.64 2059.95,1079.9C2053.52,1095.75 2057.25,1105.9 2067.28,1115.24C2114.2,1159.06 2167.69,1193.11 2227.08,1217.19C2249.47,1226.32 2273.14,1233.11 2296.87,1237.88C2347.91,1248.11 2395.26,1235.96 2437.78,1207.12C2458.03,1193.4 2458.47,1180.58 2444.43,1161.43C2346.62,1028.04 2307.9,879.56 2337.29,716.406C2348.31,655.323 2376.56,597.627 2442.13,580.038C2482.66,569.154 2528.46,569.614 2570.6,574.98C2639.09,583.69 2701.12,611.025 2743.19,669.989C2793.67,740.74 2806.56,818.171 2784.84,902.755C2769.24,963.507 2737.37,1015.19 2702.28,1065.39C2688.39,1085.29 2687.85,1103.63 2706.79,1116.94C2735.97,1137.44 2765.61,1159.92 2798.58,1171.79C2870.21,1197.57 2944.54,1195.32 3016.71,1172.12C3095.68,1146.69 3151.16,1094.31 3182.81,1016.58C3220.6,923.631 3221.06,826.27 3219.14,728.557C3217.62,652.208 3214.96,575.866 3212.69,499.492C3211.89,472.221 3207.5,470.638 3181.5,475.927C3113.01,489.763 3044.18,502.011 2975.44,514.579C2953.76,518.514 2931.9,521.183 2910.23,525.091C2863.01,533.587 2824.05,514.185 2821.38,458.95C2818.66,403.285 2810.6,347.886 2804.88,292.346C2804.55,289.22 2804.29,286.076 2804.12,282.92C2800.93,217.561 2816.75,182.011 2895.21,184.859C2976.25,187.837 3057.28,190.506 3138.21,194.758C3178.02,196.828 3192.03,186.8 3194.64,147.294C3196.66,116.624 3197.52,85.93 3199.43,55.273C3202.31,9.291 3212.79,-1.632 3259.51,0.195C3287.43,1.294 3315.49,6.161 3342.8,12.304C3381.26,20.952 3401.42,48.032 3404.09,86.286C3406.25,117.632 3405.34,149.222 3404.84,180.669C3404.43,202.92 3411.34,214.863 3436.29,217.381C3508.29,224.711 3580.02,234.727 3651.87,243.258C3685.8,247.296 3704.83,261.029 3709.42,286.254C3717.38,330.066 3707.91,360.07 3674.84,372.04C3628.59,388.772 3580.77,401.52 3532.95,413.309C3499.48,421.575 3464.81,425.113 3430.8,431.361C3407.97,435.538 3395.57,447.53 3395.78,473.206C3396.63,599.992 3393.76,726.894 3397.44,853.559C3399.35,920.03 3409.33,986.592 3437.65,1048.68C3460.52,1098.97 3499.59,1118.78 3553.91,1109.67C3633.63,1096.3 3706.7,1068.3 3770.36,1017.86C3805.68,989.875 3828.91,955.628 3830.67,908.33C3833.85,821.778 3838.13,735.253 3843.21,648.828C3844.68,623.894 3847.51,598.04 3855.82,574.781C3860.45,561.878 3877.38,544.815 3889.17,544.469C3954.29,542.501 4019.85,541.851 4084.66,547.472C4125.43,550.996 4153.43,589.139 4151.28,632.3C4148.35,692.728 4140.54,752.942 4134.79,813.246C4127.69,887.649 4121.14,962.104 4113.23,1036.41C4105.22,1111.62 4165.38,1148.91 4224.9,1149.64C4274.84,1150.24 4304.32,1131.61 4325.53,1078.76C4347.5,1024.07 4360.56,964.774 4370.03,906.295C4383.44,823.271 4389.78,739.107 4399.67,655.504C4403.69,621.36 4425.01,595.111 4451.52,589.415C4482.16,582.837 4522.37,595.268 4532.4,623.279C4540.82,646.69 4538.9,675.292 4535.97,700.965C4525.14,796.179 4509.52,890.917 4500.61,986.32C4495.11,1044.92 4527.97,1086.64 4584.9,1103.96C4613.28,1112.57 4642.7,1119.38 4672.09,1122.78C4723.69,1128.68 4760.24,1091.01 4771.02,1032.36C4780.14,983.038 4781.35,932.261 4785.79,882.103C4790.97,822.54 4791.72,762.211 4801.9,703.507C4816.87,616.597 4873.01,537.76 4977.03,512.466C5039.46,497.267 5102.41,495.454 5164.74,502.657C5259.79,513.59 5359.21,578.198 5389.6,687.373C5412.67,770.373 5403.5,850.551 5376.35,930.397C5344.9,1022.93 5287.41,1095.03 5207.13,1149.95C5199.71,1155.01 5195.38,1164.61 5189.69,1172.12C5199.77,1176.58 5209.95,1185.05 5219.98,1184.87C5315.93,1183.4 5406.42,1161.45 5489.28,1111.19C5507.97,1099.87 5528.34,1091.3 5548.08,1081.91C5566.23,1073.32 5576.91,1083.5 5571.87,1099.14C5563.45,1125.37 5553.32,1153.04 5536.55,1174.22C5465.54,1263.99 5368.68,1307.02 5256.66,1314.56C5209.14,1317.75 5160.91,1311.4 5113.04,1308.75C5076.9,1306.73 5040.83,1303.59 5004.69,1301.14C4986.35,1299.94 4975.76,1307.64 4971.18,1326.6C4942.41,1445.33 4927.19,1566.06 4912.27,1687.12C4902.85,1763.33 4888.63,1839.3 4870.4,1913.88C4860.52,1954.35 4828.92,1982.24 4785.17,1989.29C4759.02,1993.51 4739.67,1982.19 4730.9,1957.82C4723.5,1937.27 4716.59,1915.69 4714.83,1894.16C4706.2,1787.87 4709.73,1681.84 4723.85,1576.06C4731,1522.25 4735.79,1468.13 4741.93,1414.2C4746.28,1376.68 4751.93,1339.3 4755.45,1301.7C4758.22,1271.34 4751.31,1264.18 4722.24,1258.39C4662.11,1246.4 4601.95,1234.61 4542.09,1221.35C4501.41,1212.31 4469.71,1226.71 4442.15,1254.74C4405.52,1292 4365.05,1324.38 4317.02,1345.32C4259.02,1370.62 4197.54,1365.3 4137.88,1355.85C4051.81,1342.15 3983.06,1296.89 3934.19,1224.27C3919.01,1201.74 3908.03,1176.32 3896.13,1151.76C3889.48,1138 3883.49,1132.65 3867.36,1140.88C3810.16,1170 3753.17,1199.9 3694.12,1224.85C3628.35,1252.65 3558.55,1262.41 3488.66,1242.92C3420.52,1223.89 3368.27,1180.03 3324.88,1125.2C3313.23,1110.51 3301.79,1095.72 3283.75,1072.61ZM5246.17,799.954C5245.41,790.528 5245.41,781.037 5243.85,771.764C5235.13,718.063 5181.21,694.027 5137.77,726.408C5118.13,741.044 5100.28,760.267 5086.88,780.835C5042.12,849.439 5021.92,928.034 5001.71,1006.19C4996.62,1025.83 4993.09,1046.58 4993.49,1066.74C4994.25,1104.28 5016.33,1115.32 5047.77,1095.03C5113.03,1052.93 5161.37,994.532 5202.17,929.616C5226.97,890.182 5247.28,848.581 5246.17,799.954ZM2685.4,837.826C2685.97,800.514 2677.26,765.989 2649.78,739.153C2634.55,724.283 2615.5,717.808 2593.66,724.617C2567.16,732.828 2552.85,752.487 2550.85,785.11C2547,848.31 2574.14,902.612 2602.08,956.067C2616.46,983.595 2630.13,982.724 2648.71,957.283C2674.7,921.708 2684.85,881.268 2685.4,837.826ZM2041.11,825.755C2034.2,802.901 2029.63,778.966 2019.76,757.443C2007.17,730.055 1974.7,717.73 1945.99,725.241C1915.6,733.213 1903.58,747.697 1906.73,785.135C1909.51,817.72 1916.99,850.216 1925.66,881.867C1932.02,905.129 1941.82,927.928 1953.41,949.119C1968.99,977.666 1985.28,977.948 2000.6,950.307C2021.73,912.255 2038.06,872.29 2041.11,825.755Z" style="fill:rgb(246,64,96);fill-rule:nonzero;"/>
        </g>
        <g transform="matrix(0.62504,0,0,0.62504,135.149,125.785)">
            <path d="M425.656,488.443C451.535,488.443 472.951,494.02 489.906,505.174C506.861,516.329 520.469,531.722 530.732,551.354C540.994,570.986 548.356,594.41 552.817,621.627C557.279,648.844 559.51,678.962 559.51,711.979C559.51,766.413 555.271,825.532 546.794,889.336C538.317,953.139 529.616,1015.83 520.692,1077.4C511.769,1129.16 504.407,1178.01 498.607,1223.97C492.806,1269.93 489.906,1309.41 489.906,1342.43C489.906,1368.31 491.914,1388.61 495.929,1403.34C499.945,1418.06 507.307,1425.42 518.015,1425.42C520.692,1422.74 527.831,1408.47 539.432,1382.59C551.033,1356.71 565.087,1324.59 581.596,1286.21C598.105,1247.84 615.729,1206.35 634.468,1161.73C653.208,1117.11 671.055,1074.72 688.01,1034.57C696.934,1012.26 705.634,991.288 714.112,971.656C722.589,952.024 730.174,934.623 736.867,919.453C743.56,904.283 749.137,892.013 753.599,882.643C758.06,873.273 761.184,867.25 762.968,864.573C768.323,857.434 776.577,852.303 787.731,849.179C798.886,846.056 809.594,845.387 819.856,847.172C830.119,848.956 838.373,852.972 844.619,859.218C850.866,865.465 852.204,874.389 848.635,885.989L765.645,1096.14C736.198,1172.88 710.988,1236.46 690.018,1286.88C669.047,1337.3 648.3,1377.23 627.776,1406.68C607.251,1436.13 585.166,1456.21 561.518,1466.92C537.87,1477.62 508.646,1480.75 473.844,1476.29C449.75,1473.61 429.449,1466.02 412.94,1453.53C396.431,1441.04 383.269,1424.75 373.453,1404.67C363.637,1384.6 356.498,1361.39 352.036,1335.07C347.574,1308.75 345.344,1279.97 345.344,1248.73C345.344,1198.76 349.582,1145 358.06,1087.44C366.537,1029.88 374.791,973.887 382.823,919.453C389.962,874.835 396.431,832.225 402.232,791.622C408.032,751.02 410.932,716.887 410.932,689.224C410.932,667.807 409.147,650.852 405.578,638.359C402.008,625.866 396.208,619.173 388.177,618.281C379.253,617.389 367.653,627.205 353.375,647.729C339.097,668.253 323.481,695.693 306.526,730.049C289.571,764.405 272.393,803.669 254.992,847.841C237.591,892.013 221.082,936.854 205.466,982.364C189.85,1027.88 176.018,1072.27 163.971,1115.55C151.924,1158.83 143.224,1196.98 137.87,1229.99C138.762,1238.92 139.654,1246.5 140.547,1252.75C141.439,1259 142.778,1263.9 144.562,1267.47C154.378,1290.67 152.147,1311.42 137.87,1329.72C123.592,1348.01 101.729,1357.16 72.281,1357.16C64.25,1357.16 55.773,1356.26 46.849,1354.48C37.925,1352.69 28.556,1349.57 18.74,1345.11C8.924,1340.65 0.892,1330.83 -5.354,1315.66C-11.601,1300.49 -16.509,1281.75 -20.078,1259.44C-23.648,1237.13 -26.325,1211.92 -28.109,1183.82C-29.894,1155.7 -30.786,1126.48 -30.786,1096.14C-30.786,1061.34 -29.671,1026.09 -27.44,990.395C-25.209,954.701 -22.309,921.014 -18.74,889.336C-15.17,857.657 -11.154,829.771 -6.693,805.677C-2.231,781.583 2.231,763.29 6.693,750.797C-0.446,749.012 -3.346,746.112 -2.008,742.096C-0.669,738.08 3.793,734.065 11.378,730.049C18.963,726.034 29.002,722.687 41.495,720.01C53.988,717.333 67.819,715.995 82.99,715.995C101.729,715.995 118.238,718.895 132.516,724.695C146.793,730.495 153.04,741.427 151.255,757.489C151.255,759.274 150.809,761.951 149.917,765.521C149.024,769.09 148.578,773.106 148.578,777.567L141.885,940.869C156.163,893.574 173.341,843.379 193.419,790.284C213.497,737.188 235.806,688.331 260.346,643.713C284.886,599.095 311.211,562.062 339.32,532.614C367.43,503.167 396.208,488.443 425.656,488.443Z" style="fill:rgb(246,64,96);fill-rule:nonzero;"/>
        </g>
        <g transform="matrix(0.62504,0,0,0.62504,135.149,125.785)">
            <path d="M768.323,756.151C775.461,751.689 783.046,748.789 791.078,747.45C799.109,746.112 806.694,745.442 813.833,745.442C816.51,732.949 821.195,717.11 827.888,697.924C834.58,678.738 845.512,660.445 860.682,643.044C875.852,625.643 896.822,610.919 923.593,598.872C950.364,586.825 985.166,580.802 1028,580.802C1071.72,581.694 1107.87,590.841 1136.42,608.242C1164.98,625.643 1187.51,647.283 1204.02,673.161C1220.53,699.04 1231.68,726.926 1237.48,756.82C1243.28,786.714 1245.74,814.154 1244.84,839.14L1244.84,853.864L1242.17,900.713C1272.51,888.22 1301.73,871.935 1329.84,851.856C1357.95,831.778 1381.37,806.123 1400.11,774.89L1398.78,774.89C1403.24,767.751 1410.38,761.059 1420.19,754.812C1430.01,748.566 1438.93,745.442 1446.96,745.442C1456.78,745.442 1463.25,748.789 1466.37,755.482C1469.5,762.174 1467.04,774.444 1459.01,792.291C1446.52,819.062 1431.57,842.933 1414.17,863.903C1396.77,884.874 1378.03,903.613 1357.95,920.122C1337.87,936.631 1317.12,951.132 1295.71,963.625C1274.29,976.118 1252.87,986.38 1231.46,994.411C1225.21,1024.75 1215.84,1055.54 1203.35,1086.77C1190.86,1118 1173.9,1146.11 1152.48,1171.1C1131.07,1196.09 1103.85,1216.39 1070.83,1232C1037.82,1247.62 997.659,1254.98 950.364,1254.09C900.392,1253.2 859.12,1245.16 826.549,1229.99C793.978,1214.82 768.099,1195.41 748.914,1171.77C729.728,1148.12 716.343,1121.13 708.757,1090.79C701.172,1060.45 697.38,1029.66 697.38,998.427C697.38,969.871 700.057,941.985 705.411,914.768C710.765,887.551 717.012,862.788 724.151,840.479C731.29,818.17 739.098,799.653 747.575,784.929C756.053,770.205 762.968,760.613 768.323,756.151ZM1081.54,931.5C1094.93,933.284 1112.77,931.946 1135.08,927.484C1137.76,910.529 1139.77,896.028 1141.11,883.981C1142.44,871.935 1143.11,864.126 1143.11,860.557C1144.01,832.001 1142.89,803.892 1139.77,776.229C1136.64,748.566 1130.4,724.026 1121.03,702.609C1111.66,681.192 1098.72,664.461 1082.21,652.414C1065.7,640.367 1044.51,635.236 1018.63,637.021C1004.35,637.913 990.967,643.49 978.473,653.752C965.98,664.015 955.495,676.061 947.018,689.893C938.54,703.725 932.517,718.225 928.947,733.396C925.378,748.566 924.932,761.951 927.609,773.552L932.963,796.307C934.748,808.8 937.648,822.855 941.664,838.471C945.679,854.087 952.818,868.588 963.08,881.974C973.342,895.359 987.843,906.737 1006.58,916.106C1025.32,925.476 1050.31,930.607 1081.54,931.5ZM1086.89,1023.86C1033.35,1022.07 989.628,1013.82 955.718,999.096C921.809,984.372 894.592,966.748 874.067,946.224L874.067,968.979C874.067,992.18 875.629,1015.16 878.752,1037.91C881.875,1060.67 887.676,1081.19 896.153,1099.49C904.631,1117.78 916.008,1132.5 930.286,1143.66C944.564,1154.81 962.857,1160.84 985.166,1161.73C1001.23,1161.73 1015.95,1157.94 1029.34,1150.35C1042.72,1142.77 1054.55,1132.5 1064.81,1119.57C1075.07,1106.62 1084.22,1091.9 1092.25,1075.39C1100.28,1058.88 1107.42,1041.71 1113.67,1023.86C1108.31,1023.86 1103.63,1024.08 1099.61,1024.53C1095.6,1024.97 1091.36,1024.75 1086.89,1023.86Z" style="fill:rgb(246,64,96);fill-rule:nonzero;"/>
        </g>
        <g transform="matrix(0.62504,0,0,0.62504,135.149,125.785)">
            <path d="M1002.57,274.276C1019.52,278.738 1041.16,281.638 1067.49,282.977C1093.81,284.315 1123.93,284.984 1157.84,284.984C1213.16,284.984 1274.39,283.646 1341.51,280.969L1363.07,116.328C1363.98,110.082 1364.88,104.951 1365.78,100.935C1366.68,96.919 1367.13,95.358 1367.13,96.25C1367.13,91.788 1369.38,86.88 1373.87,81.526C1378.36,76.172 1383.98,71.041 1390.72,66.133C1397.47,61.225 1405.34,57.209 1414.33,54.086C1423.31,50.963 1432.3,49.401 1441.3,49.401C1453.87,49.401 1465.1,52.524 1474.98,58.771C1484.86,65.017 1491.58,77.064 1495.15,94.912C1497.83,113.651 1499.17,142.653 1499.17,181.917L1499.17,224.75C1499.17,239.92 1498.72,255.983 1497.83,272.937C1522.81,271.153 1547.35,269.591 1571.45,268.253C1595.54,266.914 1619.63,265.352 1643.73,263.568C1679.42,260.891 1714.89,258.437 1750.14,256.206C1785.39,253.975 1819.08,251.744 1851.2,249.513C1883.33,247.282 1913.44,245.72 1941.55,244.828C1969.66,243.936 1994.43,243.49 2015.84,243.49C2056,243.49 2085,246.167 2102.85,251.521C2113.56,255.983 2120.92,262.006 2124.93,269.591C2128.95,277.176 2129.84,284.538 2127.61,291.677C2125.38,298.816 2119.8,304.839 2110.88,309.747C2101.96,314.655 2089.91,315.771 2074.74,313.094C2061.35,311.309 2046.18,309.747 2029.23,308.409C2012.27,307.07 1994.43,306.401 1975.69,306.401C1922.14,306.401 1859.23,309.301 1786.95,315.102C1714.67,320.902 1639.27,326.925 1560.74,333.172L1493.81,339.865L1484.44,546C1479.69,625.42 1474.93,705.509 1470.17,786.268C1465.41,867.027 1463.03,940.869 1463.03,1007.8C1463.03,1041.71 1463.47,1072.94 1464.36,1101.49C1465.26,1130.05 1467.04,1154.37 1469.72,1174.44C1472.39,1194.52 1475.74,1210.14 1479.76,1221.29C1483.77,1232.45 1488.46,1237.58 1493.81,1236.69C1506.31,1234.9 1519.91,1219.95 1534.64,1191.85C1549.36,1163.74 1564.09,1130.94 1578.81,1093.46C1593.53,1055.98 1607.14,1017.39 1619.63,977.679C1632.13,937.969 1642.39,905.621 1650.42,880.635C1652.21,874.389 1654.21,867.919 1656.44,861.226C1658.67,854.534 1660.68,848.064 1662.47,841.817C1665.14,835.571 1671.39,831.555 1681.21,829.771C1691.02,827.986 1701.29,827.986 1711.99,829.771C1722.7,831.555 1731.63,834.679 1738.77,839.14C1745.9,843.602 1748.13,848.51 1745.46,853.864C1741.89,859.218 1738.77,869.034 1736.09,883.312C1732.52,900.267 1727.39,922.353 1720.69,949.57C1714,976.787 1705.52,1005.57 1695.26,1035.91C1685,1066.25 1672.73,1096.81 1658.45,1127.6C1644.17,1158.38 1627.44,1186.05 1608.26,1210.59C1589.07,1235.12 1566.99,1254.98 1542,1270.15C1517.01,1285.32 1489.35,1292.46 1459.01,1291.57C1428.67,1290.67 1403.46,1277.74 1383.38,1252.75C1363.3,1227.76 1347.24,1194.52 1335.19,1153.03C1323.15,1111.53 1314.67,1063.12 1309.76,1007.8C1304.85,952.47 1302.4,894.467 1302.4,833.786C1302.4,752.581 1305.77,669.592 1312.51,584.818C1319.25,500.043 1326.22,422.408 1333.42,351.911C1256.52,357.266 1186.84,359.943 1124.37,359.943C1095.82,359.943 1069.94,359.496 1046.74,358.604C1023.54,357.712 1003.46,355.035 986.505,350.573L989.182,350.573C965.98,346.111 948.133,338.749 935.64,328.487C923.147,318.225 916.901,308.186 916.901,298.37C916.901,287.661 923.816,279.63 937.648,274.276C951.48,268.922 973.119,268.922 1002.57,274.276Z" style="fill:rgb(246,64,96);fill-rule:nonzero;"/>
        </g>
    </g>
</svg>
